<svg width="17" height="17" viewBox="0 0 17 17" fill="none" xmlns="http://www.w3.org/2000/svg">
<g id="Category">
<path id="Fill 1" fill-rule="evenodd" clip-rule="evenodd" d="M4.20835 1.91699C1.91669 1.91699 1.91669 2.09033 1.91669 4.20866V4.22949C1.91669 5.15199 1.91669 5.81866 2.14252 6.10033C2.36335 6.37366 3.01919 6.50033 4.20835 6.50033C5.39752 6.50033 6.05335 6.37283 6.27419 6.09949C6.50002 5.81866 6.50002 5.15199 6.50002 4.22866C6.50002 2.09033 6.50002 1.91699 4.20835 1.91699ZM4.20835 7.75033C2.80335 7.75033 1.74919 7.60283 1.17002 6.88366C0.666687 6.25949 0.666687 5.40783 0.666687 4.22949L1.29169 4.20866H0.666687C0.666687 1.81699 0.817521 0.666992 4.20835 0.666992C7.59919 0.666992 7.75002 1.81699 7.75002 4.20866C7.75002 5.40699 7.75002 6.25949 7.24669 6.88366C6.66752 7.60283 5.61335 7.75033 4.20835 7.75033Z" fill="#141619"/>
<path id="Fill 3" fill-rule="evenodd" clip-rule="evenodd" d="M13.375 1.91699C11.0834 1.91699 11.0834 2.09033 11.0834 4.20866V4.22949C11.0834 5.15199 11.0834 5.81866 11.3092 6.10033C11.53 6.37366 12.1859 6.50033 13.375 6.50033C14.5642 6.50033 15.22 6.37283 15.4409 6.09949C15.6667 5.81866 15.6667 5.15199 15.6667 4.22866C15.6667 2.09033 15.6667 1.91699 13.375 1.91699ZM13.375 7.75033C11.97 7.75033 10.9159 7.60283 10.3367 6.88366C9.83337 6.25949 9.83337 5.40783 9.83337 4.22949L10.4584 4.20866H9.83337C9.83337 1.81699 9.98421 0.666992 13.375 0.666992C16.7659 0.666992 16.9167 1.81699 16.9167 4.20866C16.9167 5.40699 16.9167 6.25949 16.4134 6.88366C15.8342 7.60283 14.78 7.75033 13.375 7.75033Z" fill="#141619"/>
<path id="Fill 5" fill-rule="evenodd" clip-rule="evenodd" d="M4.20835 11.084C1.91669 11.084 1.91669 11.2573 1.91669 13.3757V13.3965C1.91669 14.319 1.91669 14.9857 2.14252 15.2673C2.36335 15.5407 3.01919 15.6673 4.20835 15.6673C5.39752 15.6673 6.05335 15.5398 6.27419 15.2665C6.50002 14.9857 6.50002 14.319 6.50002 13.3957C6.50002 11.2573 6.50002 11.084 4.20835 11.084ZM4.20835 16.9173C2.80335 16.9173 1.74919 16.7698 1.17002 16.0507C0.666687 15.4265 0.666687 14.5748 0.666687 13.3965L1.29169 13.3757H0.666687C0.666687 10.984 0.817521 9.83398 4.20835 9.83398C7.59919 9.83398 7.75002 10.984 7.75002 13.3757C7.75002 14.574 7.75002 15.4265 7.24669 16.0507C6.66752 16.7698 5.61335 16.9173 4.20835 16.9173Z" fill="#141619"/>
<path id="Fill 7" fill-rule="evenodd" clip-rule="evenodd" d="M13.375 11.084C11.0834 11.084 11.0834 11.2573 11.0834 13.3757V13.3965C11.0834 14.319 11.0834 14.9857 11.3092 15.2673C11.53 15.5407 12.1859 15.6673 13.375 15.6673C14.5642 15.6673 15.22 15.5398 15.4409 15.2665C15.6667 14.9857 15.6667 14.319 15.6667 13.3957C15.6667 11.2573 15.6667 11.084 13.375 11.084ZM13.375 16.9173C11.97 16.9173 10.9159 16.7698 10.3367 16.0507C9.83337 15.4265 9.83337 14.5748 9.83337 13.3965L10.4584 13.3757H9.83337C9.83337 10.984 9.98421 9.83398 13.375 9.83398C16.7659 9.83398 16.9167 10.984 16.9167 13.3757C16.9167 14.574 16.9167 15.4265 16.4134 16.0507C15.8342 16.7698 14.78 16.9173 13.375 16.9173Z" fill="#141619"/>
</g>
</svg>
