<svg width="18" height="19" viewBox="0 0 18 19" fill="none" xmlns="http://www.w3.org/2000/svg">
<g id="Cross">
<path id="Icon (Stroke)" fill-rule="evenodd" clip-rule="evenodd" d="M3.96967 4.46967C4.26256 4.17678 4.73744 4.17678 5.03033 4.46967L9 8.43934L12.9697 4.46967C13.2626 4.17678 13.7374 4.17678 14.0303 4.46967C14.3232 4.76256 14.3232 5.23744 14.0303 5.53033L10.0607 9.5L14.0303 13.4697C14.3232 13.7626 14.3232 14.2374 14.0303 14.5303C13.7374 14.8232 13.2626 14.8232 12.9697 14.5303L9 10.5607L5.03033 14.5303C4.73744 14.8232 4.26256 14.8232 3.96967 14.5303C3.67678 14.2374 3.67678 13.7626 3.96967 13.4697L7.93934 9.5L3.96967 5.53033C3.67678 5.23744 3.67678 4.76256 3.96967 4.46967Z" fill="#336DBA"/>
</g>
</svg>
