<svg width="19" height="22" viewBox="0 0 19 22" fill="none" xmlns="http://www.w3.org/2000/svg">
<g id="Notification">
<g id="Group 3">
<mask id="mask0_891_649" style="mask-type:alpha" maskUnits="userSpaceOnUse" x="0" y="0" width="19" height="18">
<path id="Clip 2" fill-rule="evenodd" clip-rule="evenodd" d="M0.00012207 0H18.497V17.348H0.00012207V0Z" fill="white"/>
</mask>
<g mask="url(#mask0_891_649)">
<path id="Fill 1" fill-rule="evenodd" clip-rule="evenodd" d="M9.24714 1.5C5.75214 1.5 3.31614 4.238 3.31614 6.695C3.31614 8.774 2.73914 9.735 2.22914 10.583C1.82014 11.264 1.49714 11.802 1.49714 12.971C1.66414 14.857 2.90914 15.848 9.24714 15.848C15.5501 15.848 16.8341 14.813 17.0001 12.906C16.9971 11.802 16.6741 11.264 16.2651 10.583C15.7551 9.735 15.1781 8.774 15.1781 6.695C15.1781 4.238 12.7421 1.5 9.24714 1.5ZM9.24714 17.348C4.57114 17.348 0.345135 17.018 0.000135425 13.035C-0.00286458 11.387 0.500135 10.549 0.944135 9.811C1.39314 9.063 1.81614 8.358 1.81614 6.695C1.81614 3.462 4.80213 0 9.24714 0C13.6921 0 16.6781 3.462 16.6781 6.695C16.6781 8.358 17.1011 9.063 17.5501 9.811C17.9941 10.549 18.4971 11.387 18.4971 12.971C18.1481 17.018 13.9231 17.348 9.24714 17.348Z" fill="#4D5154"/>
</g>
</g>
<path id="Fill 4" fill-rule="evenodd" clip-rule="evenodd" d="M9.19839 21.4996H9.19639C8.07539 21.4986 7.01439 21.0046 6.20939 20.1076C5.93239 19.8006 5.95739 19.3256 6.26539 19.0496C6.57339 18.7716 7.04739 18.7966 7.32439 19.1056C7.84239 19.6826 8.50739 19.9996 9.19739 19.9996H9.19839C9.89139 19.9996 10.5594 19.6826 11.0784 19.1046C11.3564 18.7976 11.8304 18.7726 12.1374 19.0496C12.4454 19.3266 12.4704 19.8016 12.1934 20.1086C11.3854 21.0056 10.3224 21.4996 9.19839 21.4996Z" fill="#4D5154"/>
</g>
</svg>
